<?xml version="1.0" encoding="UTF-8" standalone="no"?>
<svg width="594px" height="474px" viewBox="0 0 594 474" version="1.1" xmlns="http://www.w3.org/2000/svg" xmlns:xlink="http://www.w3.org/1999/xlink" xmlns:sketch="http://www.bohemiancoding.com/sketch/ns">
    <title>map</title>
    <description>Created with Sketch (http://www.bohemiancoding.com/sketch)</description>
    <defs></defs>
    <g id="Page 1" stroke="none" stroke-width="1" fill="none" fill-rule="evenodd">
        <g id="map">
            <path d="M76.1835938,455.53125 L121.636719,453.992188 L177.007812,444.332031 L208.152344,442.574219 L256.042969,432.765625 L261.003906,400.847656 L268.402344,383.132812 L280.679687,402.460938 L294.585938,415.78125 L299.789063,431.519531 L322.636719,403.703125 L342.964844,396.238281 L348.171875,416.222656 L364.921875,423.6875 L392.402344,408.535156 L426.878906,402.238281 L433.304687,387.890625 L422.328125,359.636719 L406.226562,339.285156 L394.84375,342.285156 L402,355.460938 L413.058594,367.027344 L415.414062,385.183594 L382.890625,388.695312 C382.890625,388.695312 357.359374,384.746094 357.359375,379.035156 C357.359375,373.324219 355.167968,355.464844 349.066406,348.875 C342.964844,342.285156 332.070312,321.570312 332.070312,321.570312 L316.539062,316.152344 L304.585937,299.167969 L325.890625,282.480469 L347.113281,264.910156 L333.535156,239.730469 L334.265625,206.714844 L351.097656,175.894531 L391.347656,143.6875 L403.300781,108.914062 L449.890625,83 L496.972656,63.96875 L557.792969,24 L593.324219,0.28125 L0.7265625,0.28125 L0.7265625,473.90625 L76.1835938,455.53125 L76.1835938,455.53125 Z M76.1835938,455.53125" id="Path 1" fill="#BBBBBB"></path>
            <path d="M309.667,189.502 C309.533,189.502 309.435,189.494 309.303,189.498 C309.193,189.496 309.054,189.504 308.943,189.504 C298.112,189.504 289.334,198.4 289.334,209.115 C289.334,219.832 309.311,261.47 309.311,261.47 C309.311,261.47 329.28,219.794 329.28,209.113 C329.28,198.432 320.498,189.502 309.667,189.502 L309.667,189.502 Z M309.259,216.371 C304.298,216.371 300.276,212.35 300.276,207.389 C300.276,202.428 304.298,198.405 309.259,198.405 C314.221,198.405 318.243,202.428 318.243,207.389 C318.243,212.35 314.221,216.371 309.259,216.371 L309.259,216.371 Z M309.259,216.371" id="Shape" fill="#757575"></path>
        </g>
    </g>
</svg>