<?xml version="1.0" encoding="UTF-8" standalone="no"?>
<svg width="593px" height="474px" viewBox="0 0 593 474" version="1.1" xmlns="http://www.w3.org/2000/svg" xmlns:xlink="http://www.w3.org/1999/xlink" xmlns:sketch="http://www.bohemiancoding.com/sketch/ns">
    <title>map3</title>
    <description>Created with Sketch (http://www.bohemiancoding.com/sketch)</description>
    <defs></defs>
    <g id="Page 1" stroke="none" stroke-width="1" fill="none" fill-rule="evenodd">
        <g id="map2" fill="#FFFFFF">
            <g id="Page 1">
                <path d="M75.4570313,455.25 L120.910156,453.710938 L176.28125,444.050781 L207.425781,442.292969 L255.316407,432.484375 L260.277343,400.566406 L267.675782,382.851562 L279.953125,402.179688 L293.859375,415.5 L299.0625,431.238281 L321.910156,403.421875 L342.238282,395.957031 L347.445312,415.941406 L364.195313,423.40625 L391.675782,408.253906 L426.152343,401.957031 L432.578125,387.609375 L421.601562,359.355469 L405.5,339.003906 L394.117188,342.003906 L401.273437,355.179688 L412.332032,366.746094 L414.687499,384.902344 L382.164062,388.414062 C382.164062,388.414062 356.632812,384.464844 356.632812,378.753906 C356.632812,373.042969 354.441405,355.183594 348.339843,348.59375 C342.238282,342.003906 331.343749,321.289062 331.343749,321.289062 L315.8125,315.871094 L303.859375,298.886719 L325.164062,282.199219 L346.386718,264.628906 L332.808593,239.449219 L333.539062,206.433594 L350.371093,175.613281 L390.621093,143.40625 L402.574218,108.632812 L449.164062,82.71875 L496.246093,63.6875 L557.066406,23.71875 L592.597656,0 L0,0 L0,473.625 L75.4570313,455.25 L75.4570313,455.25 Z M75.4570313,455.25" id="Path 1" opacity="0.3"></path>
                <g id="map" transform="translate(285.000000, 179.000000)">
                    <path d="M20.303,0.498 C20.193,0.496 20.054,0.504 19.943,0.504 C9.112,0.504 0.334,9.4 0.334,20.115 C0.334,30.832 20.311,72.47 20.311,72.47 C20.311,72.47 40.28,30.794 40.28,20.113 C40.28,9.432 31.498,0.502 20.667,0.502 C20.533,0.502 20.435,0.494 20.303,0.498 L20.303,0.498 Z M20.259,27.371 C15.298,27.371 11.276,23.35 11.276,18.389 C11.276,13.428 15.298,9.405 20.259,9.405 C25.221,9.405 29.243,13.428 29.243,18.389 C29.243,23.35 25.221,27.371 20.259,27.371 L20.259,27.371 L20.259,27.371 Z M20.259,27.371" id="pointer"></path>
                </g>
            </g>
        </g>
    </g>
</svg>